<?xml version="1.0"?><svg fill="#000000" xmlns="http://www.w3.org/2000/svg"  viewBox="0 0 50 50" width="50px" height="50px">    <path d="M 41.087891 0 L 36.166016 4.9023438 C 36.588016 5.1373438 37.000297 5.3864844 37.404297 5.6464844 L 41.087891 0 z M 37.404297 5.6464844 L 30 17 L 36 17 L 27 28 L 33 28 L 15.246094 45.822266 C 18.209094 47.216266 21.515 48 25 48 C 37.682 48 48 37.682 48 25 C 48 16.884 43.771297 9.7414844 37.404297 5.6464844 z M 15.246094 45.822266 C 14.868094 45.644266 14.495906 45.458719 14.128906 45.261719 L 11.087891 50 L 15.246094 45.822266 z M 14.128906 45.261719 L 22 33 L 17 33 L 26 22 L 19 22 L 36.166016 4.9023438 C 32.857016 3.0563437 29.05 2 25 2 C 12.318 2 2 12.318 2 25 C 2 33.752 6.9159062 41.375719 14.128906 45.261719 z"/></svg>