<svg width="16" height="21" fill="none" xmlns="http://www.w3.org/2000/svg"><path d="M.653 9.093c.774-.343 1.88.116 2.663 1.226.514.729.666 1.767 1.34 1.875.258.04.692-.176.692-.783V2.523s0-1.121 1.122-1.121c1.12 0 1.12 1.12 1.12 1.12v6.522c0-.016.561-.036.561-.046V1.121S8.151 0 9.273 0c1.12 0 1.12 1.121 1.12 1.121V9c0 .01.561.023.561.04V2.382s0-1.122 1.122-1.122c1.12 0 1.12 1.122 1.12 1.122v7.085c0 .066.562.14.562.223V4.905s0-1.12 1.12-1.12C16 3.784 16 4.904 16 4.904v8.55a6.728 6.728 0 0 1-6.727 6.727c-2.677 0-4.519-1.456-5.548-2.967a7.456 7.456 0 0 1-1.18-3.012s-.069-.83-.648-1.607A32.403 32.403 0 0 0 .145 10.43c-.177-.201-.35-.957.508-1.336Z" fill="#FFDC5D"/></svg>