<svg width="13" height="20" viewBox="0 0 13 20" fill="none" xmlns="http://www.w3.org/2000/svg">
<path d="M10.1945 8.76231H6.37847C6.25786 8.76231 6.14015 8.77449 6.02649 8.79768L5.98417 8.63648L4.08628 1.40909C4.08628 1.40909 3.84506 0.274307 4.97927 0.0336645C6.11347 -0.207558 6.3547 0.92665 6.3547 0.92665L8.15053 7.63506C8.40914 7.64898 8.65964 7.67159 8.90724 7.69711L10.1023 1.60161C10.1023 1.60161 10.2114 0.447105 11.3664 0.555539C12.5209 0.664553 12.4119 1.81906 12.4119 1.81906L11.2145 8.29088L11.0864 8.98324C10.8173 8.84697 10.5169 8.76231 10.1945 8.76231ZM1.11101 7.60259H1.20843C1.8225 7.60259 2.31944 8.10011 2.31944 8.71418V11.1299C2.31944 11.744 1.8225 12.2415 1.20843 12.2415H1.11101C0.496941 12.2415 0 11.744 0 11.1299V8.71418C0 8.10011 0.496941 7.60259 1.11101 7.60259ZM5.12249 9.31898L5.09002 9.35493C4.81517 9.66168 4.63889 10.0571 4.63889 10.5019C4.63889 10.5384 4.64643 10.5732 4.64933 10.6092C4.67484 11.0023 4.82792 11.3583 5.07146 11.6378C5.03029 11.7126 4.97695 11.7787 4.92128 11.8425C4.70905 12.0843 4.4052 12.2415 4.05903 12.2415C3.41886 12.2415 2.8993 11.7219 2.8993 11.0818V7.60259C2.8993 7.34687 2.98454 7.11261 3.12487 6.92067C3.33594 6.63248 3.674 6.44287 4.05903 6.44287C4.69919 6.44287 5.21875 6.96242 5.21875 7.60259V9.21344C5.18338 9.24534 5.15554 9.28477 5.12249 9.31898Z" fill="#FFDC5D"/>
<path d="M1.19537 12.8213C1.78915 12.8213 2.3116 12.5163 2.61603 12.0548C2.68735 12.1609 2.77317 12.2554 2.86595 12.3429C3.55308 12.9895 4.62525 12.9483 5.28223 12.2931C5.37037 12.2049 5.45793 12.1162 5.52519 12.0101L5.52345 12.0084C5.64 12.075 5.7983 12.2415 6.37817 12.2415H7.84927C7.63472 12.4032 7.43873 12.6027 7.2555 12.8213C6.54343 13.672 6.08823 14.9123 6.08823 16.3005C6.08823 16.4605 6.21812 16.5904 6.37817 16.5904C6.53821 16.5904 6.6681 16.4605 6.6681 16.3005C6.6681 14.823 7.22244 13.5317 8.04643 12.8213C8.47088 12.4554 8.96492 12.2415 9.49492 12.2415C9.90836 12.2873 9.98606 11.6616 9.5674 11.6616H6.37817C5.738 11.6616 5.21844 11.1421 5.21844 10.5019C5.21844 9.86172 5.738 9.34216 6.37817 9.34216H11.0171C11.5146 9.34216 11.9796 9.68776 12.1263 10.1627L12.7566 12.2415C12.8164 12.4357 13.0344 13.3264 12.995 13.5119C12.995 16.3005 10.2719 19.1998 6.95803 19.1998C3.16747 19.1998 0.0901528 16.1665 0.0078125 12.3957L0.0159305 12.4015C0.314559 12.6595 0.697847 12.8213 1.12346 12.8213H1.19537Z" fill="#FFDC5D"/>
</svg>
