<svg width="32" height="31" viewBox="0 0 32 31" fill="none" xmlns="http://www.w3.org/2000/svg">
<path d="M23.5313 0L21.2688 2.22438L24.9375 5.83132H24C14.2985 5.83132 6.4 13.5968 6.4 23.1348V24.7078H9.6V23.1348C9.6 15.297 16.0279 8.9774 24 8.9774H24.9375L21.2688 12.5843L23.5313 14.8087L31.0625 7.40436L23.5313 0ZM0 8.9774V10.5504V26.2809C0 28.8685 2.16805 31 4.8 31H27.2C29.832 31 32 28.8685 32 26.2809V24.7078V23.1348H28.8V24.7078V26.2809C28.8 27.1697 28.104 27.8539 27.2 27.8539H4.8C3.89595 27.8539 3.2 27.1697 3.2 26.2809V10.5504V8.9774H0Z" fill="black"/>
</svg>
