<svg width="33" height="34" viewBox="0 0 33 34" fill="none" xmlns="http://www.w3.org/2000/svg">
<path d="M11.2895 0C9.37113 0 7.81579 1.32378 7.81579 2.95652V24.3913C7.81579 26.024 9.37113 27.3478 11.2895 27.3478H29.5263C31.4447 27.3478 33 26.024 33 24.3913V12.5652H23.4474C20.5694 12.5652 18.2368 10.5799 18.2368 8.13043V0H11.2895ZM21.7105 0V8.13043C21.7105 8.94717 22.4886 9.6087 23.4474 9.6087H33L21.7105 0ZM5.21053 6.65217C2.33258 6.65217 0 8.63748 0 11.087V29.5652C0 32.0147 2.33258 34 5.21053 34H19.9737C22.8516 34 25.1842 32.0147 25.1842 29.5652H9.55263C7.15492 29.5652 5.21053 27.9103 5.21053 25.8696V6.65217ZM15.6316 15.5217H25.1842C26.1429 15.5217 26.9211 16.1833 26.9211 17C26.9211 17.8167 26.1429 18.4783 25.1842 18.4783H15.6316C14.6728 18.4783 13.8947 17.8167 13.8947 17C13.8947 16.1833 14.6728 15.5217 15.6316 15.5217ZM15.6316 20.6957H25.1842C26.1429 20.6957 26.9211 21.3572 26.9211 22.1739C26.9211 22.9907 26.1429 23.6522 25.1842 23.6522H15.6316C14.6728 23.6522 13.8947 22.9907 13.8947 22.1739C13.8947 21.3572 14.6728 20.6957 15.6316 20.6957Z" fill="black"/>
</svg>
