<svg width="38" height="30" viewBox="0 0 38 30" fill="none" xmlns="http://www.w3.org/2000/svg">
<path d="M5.08959 7.59635C6.07375 7.04821 7.55731 7.15334 8.44095 7.73485L7.42748 6.56098C6.61189 5.63406 6.904 4.63123 8.06823 3.98047C9.23247 3.33221 12.5315 5.07508 12.5315 5.07508C11.7086 4.13899 11.8625 2.9526 13.0372 2.296C14.2119 1.64191 15.8326 1.868 16.6555 2.80576L27.565 15.0868L26.1746 25.8285L14.571 22.4562L4.44989 10.4981C3.61964 9.55614 3.90651 8.25712 5.08959 7.59635Z" fill="#EF9645"/>
<path d="M2.82164 14.4285C2.82164 14.4285 1.63646 13.0519 3.36502 12.1083C5.09147 11.1647 6.2756 12.5405 6.2756 12.5405L11.7733 18.9296C11.9628 18.6776 12.1701 18.429 12.4014 18.1837L4.7711 9.31753C4.7711 9.31753 3.58697 7.94176 5.31448 6.99816C7.04094 6.05456 8.22506 7.43033 8.22506 7.43033L15.4021 15.7709C15.669 15.5974 15.9423 15.423 16.2239 15.252L7.90364 5.58151C7.90364 5.58151 6.71952 4.20574 8.44702 3.26214C10.1735 2.31853 11.3576 3.69431 11.3576 3.69431L19.6779 13.3631C19.9836 13.2137 20.2862 13.0844 20.5898 12.9476L12.8129 3.91039C12.8129 3.91039 11.6288 2.53462 13.3552 1.59102C15.0817 0.647419 16.2658 2.02319 16.2658 2.02319L24.4887 11.5793L25.7388 13.0327C20.5584 15.8643 20.0653 21.1914 23.0251 24.6312C23.6166 25.3195 24.4804 24.8482 24.4804 24.8482C20.928 20.7192 22.0127 16.0796 27.1941 13.2488L25.6666 7.15668C25.6666 7.15668 25.096 5.55147 27.1093 5.09594C29.1237 4.64124 29.6953 6.24645 29.6953 6.24645L31.4595 10.4213C32.1589 12.0766 32.9033 13.726 33.8885 15.2862C36.6703 19.6913 35.0087 25.166 29.7634 28.0335C24.0417 31.1597 16.2198 29.9975 12.2957 25.4388L2.82164 14.4285Z" fill="#FFDC5D"/>
<path d="M12.5635 26.6978C8.37562 26.6978 4.14375 23.3256 4.14375 19.9883C4.14375 19.527 3.71973 19.154 3.14075 19.154C2.56177 19.154 2.0498 19.527 2.0498 19.9883C2.0498 24.9942 6.28167 28.3664 12.5635 28.3664C13.1425 28.3664 13.6105 27.9585 13.6105 27.4971C13.6105 27.0357 13.1425 26.6978 12.5635 26.6978Z" fill="#5DADEC"/>
<path d="M7.32881 28.3314C4.18789 28.3314 2.09395 26.6628 2.09395 24.1599C2.09395 23.6985 1.62595 23.3256 1.04697 23.3256C0.467997 23.3256 0 23.6985 0 24.1599C0 27.4971 3.14092 30 7.32881 30C7.90779 30 8.37578 29.6271 8.37578 29.1657C8.37578 28.7043 7.90779 28.3314 7.32881 28.3314ZM25.1274 1.63358C24.5494 1.63358 24.0804 2.00734 24.0804 2.46788C24.0804 2.92842 24.5494 3.30219 25.1274 3.30219C29.3152 3.30219 33.5031 6.29652 33.5031 9.97664C33.5031 10.4372 33.9722 10.8109 34.5501 10.8109C35.128 10.8109 35.5971 10.4372 35.5971 9.97664C35.5971 5.37628 31.4092 1.63358 25.1274 1.63358Z" fill="#5DADEC"/>
<path d="M30.3624 0C29.7845 0 29.3154 0.338729 29.3154 0.799266C29.3154 1.2598 29.7845 1.66861 30.3624 1.66861C33.5033 1.66861 35.5533 3.52495 35.5533 5.80511C35.5533 6.26564 36.0653 6.63941 36.6442 6.63941C37.2232 6.63941 37.6472 6.26564 37.6472 5.80511C37.6472 2.60387 34.5503 0 30.3624 0Z" fill="#5DADEC"/>
</svg>
