<svg width="40" height="34" viewBox="0 0 40 34" fill="none" xmlns="http://www.w3.org/2000/svg">
<path fill-rule="evenodd" clip-rule="evenodd" d="M14.4186 0C12.3215 0 10.3104 0.945961 8.82753 2.62978C7.34468 4.3136 6.51163 6.59736 6.51163 8.97864C6.51163 11.3599 7.34468 13.6437 8.82753 15.3275C10.3104 17.0113 12.3215 17.9573 14.4186 17.9573C16.5157 17.9573 18.5268 17.0113 20.0097 15.3275C21.4925 13.6437 22.3256 11.3599 22.3256 8.97864C22.3256 6.59736 21.4925 4.3136 20.0097 2.62978C18.5268 0.945961 16.5157 0 14.4186 0ZM25.5814 0C24.0763 0 22.6698 0.477749 21.4717 1.30801C23.1517 3.30021 24.186 6.00407 24.186 8.97864C24.186 11.9532 23.1517 14.6571 21.4717 16.6493C22.6698 17.4795 24.0763 17.9573 25.5814 17.9573C29.946 17.9573 33.4884 13.9327 33.4884 8.97864C33.4884 4.02243 29.946 0 25.5814 0ZM14.4186 19.6985C9.77861 19.6985 5.6757 21.0283 3.125 23.0036C1.09709 24.5733 0 26.5836 0 28.6772V30.9342C0 31.7476 0.286105 32.5259 0.792151 33.1005C1.2982 33.6751 1.97994 34 2.69622 34H26.141C26.8573 34 27.539 33.6751 28.0451 33.1005C28.5511 32.5259 28.8372 31.7476 28.8372 30.9342V28.6772C28.8372 26.5836 27.7401 24.5733 25.7122 23.0036C23.1615 21.0283 19.0586 19.6985 14.4186 19.6985ZM25.5814 19.6985C25.146 19.6985 24.7156 19.7124 24.2914 19.7357C25.2142 20.192 26.0442 20.7005 26.7624 21.2583C29.3856 23.2885 30.6977 25.9667 30.6977 28.6772V30.9342C30.6977 32.0433 30.3858 33.1169 29.8147 34H37.3038C38.0201 34 38.7018 33.6751 39.2078 33.1005C39.7139 32.5259 40 31.7476 40 30.9342V28.6772C40 26.5836 38.9029 24.5733 36.875 23.0036C34.3243 21.0283 30.2214 19.6985 25.5814 19.6985Z" fill="black"/>
</svg>
